<svg width="508" height="508" viewBox="0 0 508 508" fill="none" xmlns="http://www.w3.org/2000/svg">
<g filter="url(#filter0_d_2_42)">
<g clip-path="url(#clip0_2_42)">
<path d="M4 0H504V470C504 486.569 490.569 500 474 500H4V0Z" fill="white"/>
<path d="M4 0H504V500H4V0Z" fill="#F2BE3A"/>
<path d="M400.765 405.368L504 305V475C504 488.807 492.807 500 479 500H309L400.765 405.368Z" fill="#37311F" fill-opacity="0.61"/>
<path d="M285.86 252.48H258.5V279.84H249.41V252.48H222.05V243.39H249.41V216.03H258.5V243.39H285.86V252.48Z" fill="#80682A"/>
</g>
</g>
<defs>
<filter id="filter0_d_2_42" x="0" y="0" width="508" height="508" filterUnits="userSpaceOnUse" color-interpolation-filters="sRGB">
<feFlood flood-opacity="0" result="BackgroundImageFix"/>
<feColorMatrix in="SourceAlpha" type="matrix" values="0 0 0 0 0 0 0 0 0 0 0 0 0 0 0 0 0 0 127 0" result="hardAlpha"/>
<feOffset dy="4"/>
<feGaussianBlur stdDeviation="2"/>
<feComposite in2="hardAlpha" operator="out"/>
<feColorMatrix type="matrix" values="0 0 0 0 0 0 0 0 0 0 0 0 0 0 0 0 0 0 0.25 0"/>
<feBlend mode="normal" in2="BackgroundImageFix" result="effect1_dropShadow_2_42"/>
<feBlend mode="normal" in="SourceGraphic" in2="effect1_dropShadow_2_42" result="shape"/>
</filter>
<clipPath id="clip0_2_42">
<path d="M4 0H504V470C504 486.569 490.569 500 474 500H4V0Z" fill="white"/>
</clipPath>
</defs>
</svg>
