<svg width="508" height="508" viewBox="0 0 508 508" fill="none" xmlns="http://www.w3.org/2000/svg">
<g filter="url(#filter0_d_2_42)">
<g clip-path="url(#clip0_2_42)">
<path d="M4 0H504V470C504 486.569 490.569 500 474 500H4V0Z" fill="white"/>
<path d="M4 0H504V500H4V0Z" fill="#F2BE3A"/>
<path d="M400.765 405.368L504 305V475C504 488.807 492.807 500 479 500H309L400.765 405.368Z" fill="#37311F" fill-opacity="0.61"/>
<path d="M132.67 282V219H145.72V270.48H180.19V282H132.67ZM212.176 282.9C207.496 282.9 203.266 281.82 199.486 279.66C195.706 277.5 192.706 274.59 190.486 270.93C188.266 267.27 187.156 263.16 187.156 258.6C187.156 254.04 188.236 249.93 190.396 246.27C192.616 242.55 195.616 239.61 199.396 237.45C203.236 235.29 207.496 234.21 212.176 234.21C216.856 234.21 221.086 235.29 224.866 237.45C228.706 239.61 231.706 242.55 233.866 246.27C236.086 249.93 237.196 254.04 237.196 258.6C237.196 263.16 236.086 267.27 233.866 270.93C231.706 274.59 228.736 277.5 224.956 279.66C221.176 281.82 216.916 282.9 212.176 282.9ZM212.176 272.19C214.636 272.19 216.826 271.59 218.746 270.39C220.726 269.19 222.286 267.57 223.426 265.53C224.626 263.43 225.226 261.12 225.226 258.6C225.226 256.02 224.626 253.71 223.426 251.67C222.286 249.63 220.726 248.01 218.746 246.81C216.826 245.55 214.636 244.92 212.176 244.92C209.776 244.92 207.586 245.55 205.606 246.81C203.626 248.01 202.066 249.63 200.926 251.67C199.786 253.71 199.216 256.02 199.216 258.6C199.216 261.12 199.786 263.43 200.926 265.53C202.066 267.57 203.626 269.19 205.606 270.39C207.586 271.59 209.776 272.19 212.176 272.19ZM271.055 301.26C267.455 301.26 263.975 300.87 260.615 300.09C257.255 299.37 254.225 298.32 251.525 296.94L255.845 287.4C258.425 288.66 260.945 289.59 263.405 290.19C265.865 290.79 268.325 291.09 270.785 291.09C274.445 291.09 277.205 290.31 279.065 288.75C280.985 287.19 281.945 284.85 281.945 281.73V278.04C278.105 280.86 273.815 282.27 269.075 282.27C264.635 282.27 260.615 281.22 257.015 279.12C253.475 276.96 250.625 274.05 248.465 270.39C246.365 266.73 245.315 262.68 245.315 258.24C245.315 253.8 246.365 249.78 248.465 246.18C250.625 242.58 253.535 239.73 257.195 237.63C260.855 235.47 264.935 234.39 269.435 234.39C271.715 234.39 273.935 234.72 276.095 235.38C278.255 236.04 280.265 236.97 282.125 238.17V235.11H294.275V281.91C294.275 288.09 292.265 292.86 288.245 296.22C284.285 299.58 278.555 301.26 271.055 301.26ZM270.965 271.83C273.245 271.83 275.315 271.47 277.175 270.75C279.035 269.97 280.625 268.89 281.945 267.51V249.15C280.625 247.83 279.005 246.81 277.085 246.09C275.225 245.31 273.215 244.92 271.055 244.92C268.475 244.92 266.165 245.52 264.125 246.72C262.085 247.86 260.465 249.45 259.265 251.49C258.065 253.47 257.465 255.72 257.465 258.24C257.465 260.82 258.035 263.13 259.175 265.17C260.375 267.21 261.995 268.83 264.035 270.03C266.135 271.23 268.445 271.83 270.965 271.83ZM306.601 282V235.11H318.931V282H306.601ZM312.721 229.53C310.801 229.53 309.151 228.84 307.771 227.46C306.391 226.08 305.701 224.43 305.701 222.51C305.701 220.53 306.391 218.88 307.771 217.56C309.151 216.18 310.801 215.49 312.721 215.49C314.701 215.49 316.351 216.18 317.671 217.56C319.051 218.88 319.741 220.53 319.741 222.51C319.741 224.43 319.051 226.08 317.671 227.46C316.351 228.84 314.701 229.53 312.721 229.53ZM331.273 282V235.11H343.603V238.98C347.143 235.8 351.523 234.21 356.743 234.21C360.403 234.21 363.613 235.02 366.373 236.64C369.193 238.2 371.383 240.39 372.943 243.21C374.503 245.97 375.283 249.21 375.283 252.93V282H362.953V254.73C362.953 251.67 362.083 249.27 360.343 247.53C358.603 245.73 356.233 244.83 353.233 244.83C351.133 244.83 349.273 245.25 347.653 246.09C346.033 246.87 344.683 248.01 343.603 249.51V282H331.273Z" fill="#80682A"/>
</g>
</g>
<defs>
<filter id="filter0_d_2_42" x="0" y="0" width="508" height="508" filterUnits="userSpaceOnUse" color-interpolation-filters="sRGB">
<feFlood flood-opacity="0" result="BackgroundImageFix"/>
<feColorMatrix in="SourceAlpha" type="matrix" values="0 0 0 0 0 0 0 0 0 0 0 0 0 0 0 0 0 0 127 0" result="hardAlpha"/>
<feOffset dy="4"/>
<feGaussianBlur stdDeviation="2"/>
<feComposite in2="hardAlpha" operator="out"/>
<feColorMatrix type="matrix" values="0 0 0 0 0 0 0 0 0 0 0 0 0 0 0 0 0 0 0.25 0"/>
<feBlend mode="normal" in2="BackgroundImageFix" result="effect1_dropShadow_2_42"/>
<feBlend mode="normal" in="SourceGraphic" in2="effect1_dropShadow_2_42" result="shape"/>
</filter>
<clipPath id="clip0_2_42">
<path d="M4 0H504V470C504 486.569 490.569 500 474 500H4V0Z" fill="white"/>
</clipPath>
</defs>
</svg>
