<svg width="508" height="508" viewBox="0 0 508 508" fill="none" xmlns="http://www.w3.org/2000/svg">
<g filter="url(#filter0_d_2_9)">
<g clip-path="url(#clip0_2_9)">
<path d="M4 0H504V470C504 486.569 490.569 500 474 500H4V0Z" fill="white"/>
<path d="M4 0H504V500H4V0Z" fill="#F2BE3A"/>
<path d="M400.765 405.368L504 305V475C504 488.807 492.807 500 479 500H309L400.765 405.368Z" fill="#37311F" fill-opacity="0.61"/>
<path d="M59.17 436.9C54.07 436.9 49.09 435.97 44.23 434.11C39.37 432.19 35.05 429.49 31.27 426.01L38.74 416.65C42.4 419.89 45.91 422.23 49.27 423.67C52.69 425.11 56.29 425.83 60.07 425.83C62.71 425.83 64.99 425.53 66.91 424.93C68.83 424.27 70.3 423.34 71.32 422.14C72.4 420.94 72.94 419.53 72.94 417.91C72.94 415.75 72.16 414.1 70.6 412.96C69.04 411.76 66.37 410.83 62.59 410.17L50.08 408.01C44.74 407.11 40.66 405.22 37.84 402.34C35.08 399.46 33.7 395.74 33.7 391.18C33.7 387.28 34.69 383.89 36.67 381.01C38.71 378.13 41.56 375.94 45.22 374.44C48.94 372.88 53.35 372.1 58.45 372.1C63.07 372.1 67.66 372.88 72.22 374.44C76.84 376 80.92 378.16 84.46 380.92L77.44 390.64C70.84 385.6 64.21 383.08 57.55 383.08C55.21 383.08 53.17 383.38 51.43 383.98C49.69 384.58 48.34 385.42 47.38 386.5C46.48 387.52 46.03 388.75 46.03 390.19C46.03 392.11 46.72 393.61 48.1 394.69C49.48 395.71 51.79 396.49 55.03 397.03L66.91 399.01C73.21 400.03 77.92 402.04 81.04 405.04C84.16 407.98 85.72 411.88 85.72 416.74C85.72 420.82 84.64 424.39 82.48 427.45C80.32 430.45 77.23 432.79 73.21 434.47C69.25 436.09 64.57 436.9 59.17 436.9ZM116.249 436.72C111.029 436.72 107.069 435.55 104.369 433.21C101.729 430.81 100.409 427.33 100.409 422.77V399.37H90.779V389.11H100.409V377.14L112.739 374.35V389.11H126.149V399.37H112.739V420.25C112.739 422.41 113.219 423.97 114.179 424.93C115.139 425.83 116.819 426.28 119.219 426.28C120.419 426.28 121.499 426.22 122.459 426.1C123.479 425.92 124.589 425.62 125.789 425.2V435.37C124.529 435.79 122.939 436.12 121.019 436.36C119.159 436.6 117.569 436.72 116.249 436.72ZM134.864 436V389.11H147.194V436H134.864ZM140.984 383.53C139.064 383.53 137.414 382.84 136.034 381.46C134.654 380.08 133.964 378.43 133.964 376.51C133.964 374.53 134.654 372.88 136.034 371.56C137.414 370.18 139.064 369.49 140.984 369.49C142.964 369.49 144.614 370.18 145.934 371.56C147.314 372.88 148.004 374.53 148.004 376.51C148.004 378.43 147.314 380.08 145.934 381.46C144.614 382.84 142.964 383.53 140.984 383.53ZM181.946 436.9C177.326 436.9 173.156 435.85 169.436 433.75C165.716 431.59 162.776 428.68 160.616 425.02C158.456 421.3 157.376 417.16 157.376 412.6C157.376 407.98 158.456 403.84 160.616 400.18C162.776 396.52 165.716 393.61 169.436 391.45C173.156 389.29 177.326 388.21 181.946 388.21C185.666 388.21 189.206 388.93 192.566 390.37C195.986 391.81 198.926 393.88 201.386 396.58L193.826 404.59C192.086 402.67 190.256 401.26 188.336 400.36C186.476 399.4 184.436 398.92 182.216 398.92C179.816 398.92 177.656 399.52 175.736 400.72C173.876 401.92 172.376 403.54 171.236 405.58C170.156 407.62 169.616 409.96 169.616 412.6C169.616 415.12 170.156 417.43 171.236 419.53C172.376 421.57 173.936 423.19 175.916 424.39C177.896 425.53 180.086 426.1 182.486 426.1C184.586 426.1 186.536 425.68 188.336 424.84C190.196 423.94 191.966 422.62 193.646 420.88L201.026 428.62C198.626 431.2 195.746 433.24 192.386 434.74C189.026 436.18 185.546 436.9 181.946 436.9ZM210.137 436V373L222.467 370.93V408.82L242.717 389.11H256.667L234.527 410.62L258.017 436H242.267L222.467 414.58V436H210.137ZM269.282 455.35C268.202 455.35 267.152 455.29 266.132 455.17C265.172 455.11 264.362 455.02 263.702 454.9V444.28C264.902 444.52 266.342 444.64 268.022 444.64C272.522 444.64 275.642 442.51 277.382 438.25L278.102 436.45L259.832 389.11H273.422L285.122 421.06L298.352 389.11H311.672L290.072 439.78C288.452 443.56 286.682 446.59 284.762 448.87C282.842 451.15 280.622 452.8 278.102 453.82C275.642 454.84 272.702 455.35 269.282 455.35Z" fill="#80682A"/>
</g>
</g>
<defs>
<filter id="filter0_d_2_9" x="0" y="0" width="508" height="508" filterUnits="userSpaceOnUse" color-interpolation-filters="sRGB">
<feFlood flood-opacity="0" result="BackgroundImageFix"/>
<feColorMatrix in="SourceAlpha" type="matrix" values="0 0 0 0 0 0 0 0 0 0 0 0 0 0 0 0 0 0 127 0" result="hardAlpha"/>
<feOffset dy="4"/>
<feGaussianBlur stdDeviation="2"/>
<feComposite in2="hardAlpha" operator="out"/>
<feColorMatrix type="matrix" values="0 0 0 0 0 0 0 0 0 0 0 0 0 0 0 0 0 0 0.25 0"/>
<feBlend mode="normal" in2="BackgroundImageFix" result="effect1_dropShadow_2_9"/>
<feBlend mode="normal" in="SourceGraphic" in2="effect1_dropShadow_2_9" result="shape"/>
</filter>
<clipPath id="clip0_2_9">
<path d="M4 0H504V470C504 486.569 490.569 500 474 500H4V0Z" fill="white"/>
</clipPath>
</defs>
</svg>
